<?xml version="1.0" encoding="utf-8"?>
<!-- Generator: Adobe Illustrator 24.0.2, SVG Export Plug-In . SVG Version: 6.00 Build 0)  -->
<svg version="1.1" id="Capa_1" xmlns="http://www.w3.org/2000/svg" xmlns:xlink="http://www.w3.org/1999/xlink" x="0px" y="0px"
	 viewBox="0 0 1472.6 829.56" style="enable-background:new 0 0 1472.6 829.56;" xml:space="preserve">
<style type="text/css">
	.st0{fill:#FFFFFF;}
</style>
<g>
	<polygon class="st0" points="864.41,110.16 819.26,110.15 819.26,208.41 787.97,208.41 787.97,237.32 819.26,237.32 819.26,586.35 
		864.41,586.35 864.41,237.32 893.39,237.32 893.39,208.41 864.41,208.41 	"/>
	<rect x="387.07" y="208.41" class="st0" width="45.16" height="377.94"/>
	<path class="st0" d="M633.98,371.52c-13.49-5.12-27.61-8.49-41.28-11.74c-8.01-1.9-16.28-3.87-24.29-6.16
		c-22.69-6.46-37.14-17.56-44.17-33.93c-13.05-30.36-10.85-59.03,6.53-85.23c11.85-17.88,29.62-25.34,51.22-21.61
		c28.69,4.96,49.77,21.48,62.65,49.11c9.7,20.78,9.73,43.24,0.11,68.64c-0.13,0.31-0.31,0.63-0.5,0.99c-0.74,1.37-1.75,3.24-1,5.22
		c0.5,1.29,1.65,2.26,3.42,2.89c5.83,2.04,7.85-3.15,8.69-5.39c4.77-12.8,7.37-24.82,7.93-36.76c2.38-49.17-38.48-94.83-87.45-97.7
		c-2.15-0.12-4.26-0.19-6.36-0.19c-45.48,0-82.46,29.09-93.07,74.02c-8.98,38.05,0.71,69.51,28.8,93.51
		c13.63,11.66,29.57,20.29,48.76,26.4c9.52,3.02,19.38,5.24,28.92,7.39c10.32,2.31,21.02,4.71,31.19,8.15
		c44.42,14.93,75.54,38.88,95.11,73.2c15.8,27.73,23.2,60.01,23.3,101.6c-0.05,18.94-1.77,36.22-5.25,52.83
		c-10.23,48.82-34.09,89.92-70.93,122.15C608,801.19,550.86,811.41,481.6,790.18c-38.31-11.73-72.15-35.03-100.59-69.26
		c-39.08-47.06-55-103.01-47.35-166.31c2.18-17.97,7.69-35.42,13-52.31l0.36-1.1c0.11-0.35,0.24-0.71,0.38-1.06
		c0.61-1.61,1.37-3.61,0.4-5.59c-0.69-1.42-2.07-2.45-4.26-3.14c-6.71-2.1-8.51,2.42-9.7,5.4c-16.04,40.19-20.48,83.01-13.23,127.27
		c9.86,59.95,41.28,109.38,93.39,146.91c40.43,29.11,84.59,43.79,130.57,43.79c27.5,0,55.66-5.26,84.03-15.82
		c82.59-30.76,132.18-90.14,147.42-176.48c8.68-49.17,3-95.91-16.91-138.95C735.14,431.65,693.02,393.96,633.98,371.52z"/>
	<path class="st0" d="M331.45,325.83c-20.18-41.92-54.25-74.1-101.28-95.66c-13.12-6-28.14-10.98-48.12-15.88
		c13.49-5.13,44.2-18.62,61.62-40.6c24.05-30.3,27.58-69.05,8.78-96.4C219.2,28.81,184.9,14.78,99.6,14.78H18.98v571.57H127.7
		c24.05-0.08,43.8-2.43,62.16-7.39c68.17-18.36,114.58-54.17,141.91-109.48C354.55,423.32,354.46,373.65,331.45,325.83z
		 M199.22,172.66c-15.49,20.7-37.57,33.74-60.41,35.76H63.94V29.45l61.46-0.07c43.03,0,84.37,39.62,91.24,73.7
		C221.32,126.24,214.96,151.61,199.22,172.66z M247.42,523.5h-0.02c-32.58,31.88-73.5,48.03-121.66,48.03c-0.39,0-0.77,0-1.16,0
		l-60.64-0.07V224.4l77.11-0.01c32.83,2.5,66.26,15.46,91.72,35.56c30.47,24.06,49.88,50.73,59.34,81.54
		C313.79,412.19,298.75,473.42,247.42,523.5z"/>
	<path class="st0" d="M1022.79,198.27l-0.43-0.02c-0.72-0.03-1.44-0.02-2.2,0h-0.69c-12.31,0.02-27.37,6.38-38.15,15.86v-5.71
		l-45.18,0.02v377.92h45.18v-334.2c0.03-12.76,3.65-22.58,11-29.82c-0.29,1.66-0.43,3.36-0.43,5.07c0,16.09,13.08,29.17,29.17,29.17
		c16.07,0,29.16-13.08,29.16-29.17C1050.21,211.89,1038.06,199.17,1022.79,198.27z"/>
	<path class="st0" d="M1252.55,197.58c-110.89,0-201.1,90.15-201.1,200.96s90.21,200.97,201.1,200.97
		c110.88,0,201.07-90.16,201.07-200.97S1363.43,197.58,1252.55,197.58z M1408.56,398.54c0,103.32-69.98,187.38-156.01,187.38
		c-86.04,0-156.04-84.06-156.04-187.38c0-103.33,70-187.4,156.04-187.4C1338.58,211.14,1408.56,295.21,1408.56,398.54z"/>
</g>
</svg>
